<?xml version="1.0" encoding="UTF-8" standalone="no"?>
<!-- Generated by IcoMoon.io -->

<svg
   xmlns:dc="http://purl.org/dc/elements/1.1/"
   xmlns:cc="http://creativecommons.org/ns#"
   xmlns:rdf="http://www.w3.org/1999/02/22-rdf-syntax-ns#"
   xmlns:svg="http://www.w3.org/2000/svg"
   xmlns="http://www.w3.org/2000/svg"
   xmlns:sodipodi="http://sodipodi.sourceforge.net/DTD/sodipodi-0.dtd"
   xmlns:inkscape="http://www.inkscape.org/namespaces/inkscape"
   id="svg2"
   height="1000.14"
   viewBox="0 0 1000.14 1000.14"
   width="1000.14"
   version="1.1"
   sodipodi:docname="menu.svg"
   inkscape:version="0.92.2 (5c3e80d, 2017-08-06)">
  <defs
     id="defs11" />
  <sodipodi:namedview
     pagecolor="#ffffff"
     bordercolor="#666666"
     borderopacity="1"
     objecttolerance="10"
     gridtolerance="10"
     guidetolerance="10"
     inkscape:pageopacity="0"
     inkscape:pageshadow="2"
     inkscape:window-width="1600"
     inkscape:window-height="837"
     id="namedview9"
     showgrid="false"
     inkscape:zoom="0.3337544"
     inkscape:cx="-234.92476"
     inkscape:cy="733.56773"
     inkscape:window-x="-8"
     inkscape:window-y="-8"
     inkscape:window-maximized="1"
     inkscape:current-layer="svg2"
     fit-margin-top="0"
     fit-margin-left="0"
     fit-margin-right="0"
     fit-margin-bottom="0" />
  <metadata
     id="metadata11">
    <rdf:RDF>
      <cc:Work
         rdf:about="">
        <dc:format>image/svg+xml</dc:format>
        <dc:type
           rdf:resource="http://purl.org/dc/dcmitype/StillImage" />
        <dc:title />
      </cc:Work>
    </rdf:RDF>
  </metadata>
  <path
     style="fill:#1BA39C;fill-opacity:0.71065991;stroke-width:0.94607568"
     inkscape:connector-curvature="0"
     d="m 500.07,26.965937 c -261.28718,0 -473.104063,211.816883 -473.104063,473.104063 0,261.28718 211.816883,473.10406 473.104063,473.10406 261.28718,0 473.10406,-211.81688 473.10406,-473.10407 0,-261.28718 -211.81688,-473.104053 -473.10406,-473.104053 z m 0,827.929743 c -195.97012,0 -354.82568,-158.86503 -354.82568,-354.82569 0,-195.97011 158.86503,-354.82568 354.82568,-354.82568 195.97012,0 354.82568,158.86503 354.82568,354.82568 0,195.97012 -158.86503,354.82569 -354.82568,354.82569 z"
     id="path5" />
  <path
     style="fill:#1BA39C;fill-opacity:0.80710659;stroke:none;stroke-width:0.18406993"
     inkscape:connector-curvature="0"
     d="m 500.07,145.13717 c -196.02526,0 -354.93283,158.90757 -354.93283,354.93283 0,196.02526 158.90757,354.93283 354.93283,354.93283 196.02526,0 354.93283,-158.90757 354.93283,-354.93283 0,-196.02526 -158.90757,-354.93283 -354.93283,-354.93283 z m 0,621.12554 c -147.01664,0 -266.19272,-119.17608 -266.19272,-266.19272 0,-147.01664 119.17608,-266.19271 266.19272,-266.19271 147.01664,0 266.19272,119.17607 266.19272,266.19271 0,147.01664 -119.17608,266.19272 -266.19272,266.19272 z"
     id="path5-7" />
  <path
     style="fill:#1BA39C;fill-opacity:1;stroke-width:0.18921514"
     inkscape:connector-curvature="0"
     d="m 500.07,195.35795 c -168.28794,0 -304.71205,136.4241 -304.71205,304.71204 0,168.28794 136.42411,304.71205 304.71205,304.71205 168.28794,0 304.71205,-136.42411 304.71205,-304.71205 0,-168.28794 -136.42411,-304.71204 -304.71205,-304.71204 z m 0,533.24608 c -126.21596,0 -228.53404,-102.31807 -228.53404,-228.53404 0,-126.21596 102.31808,-228.53404 228.53404,-228.53404 126.21596,0 228.53404,102.31808 228.53404,228.53404 0,126.21597 -102.31808,228.53404 -228.53404,228.53404 z"
     id="path5-7-7" />
</svg>
